<?xml version="1.0" standalone="no"?>
<!DOCTYPE svg PUBLIC "-//W3C//DTD SVG 20010904//EN"
 "http://www.w3.org/TR/2001/REC-SVG-20010904/DTD/svg10.dtd">
<svg version="1.0" xmlns="http://www.w3.org/2000/svg"
 width="192.000000pt" height="192.000000pt" viewBox="0 0 192.000000 192.000000"
 preserveAspectRatio="xMidYMid meet">
<metadata>
Created by potrace 1.11, written by Peter Selinger 2001-2013
</metadata>
<g transform="translate(0.000000,192.000000) scale(0.100000,-0.100000)"
fill="#000000" stroke="none">
<path d="M300 1893 c-36 -15 -43 -35 -44 -122 l-1 -86 -85 -1 c-47 0 -95 -4
-108 -8 -28 -9 -42 -42 -35 -79 9 -44 27 -52 132 -52 l96 0 1 -128 0 -127 -96
0 c-103 0 -125 -9 -130 -55 -8 -74 9 -85 128 -85 l98 0 -1 -127 0 -128 -85 -3
c-47 -1 -94 -4 -106 -7 -43 -10 -52 -85 -14 -117 15 -12 39 -16 88 -16 37 0
78 0 92 -1 l26 -1 -1 -123 0 -122 -85 -1 c-102 -1 -127 -8 -136 -37 -15 -43
-3 -96 22 -98 8 -1 19 -3 24 -4 6 -1 47 -3 93 -4 l83 -1 0 -91 c1 -140 -23
-131 350 -131 170 0 321 1 335 1 24 1 27 6 37 56 11 51 44 103 149 229 8 11
115 146 236 300 122 155 229 290 240 301 10 11 30 38 45 61 l27 41 0 366 -1
366 -23 20 c-24 21 -31 21 -680 20 -361 0 -663 -3 -671 -6z m168 -229 c54 -62
-8 -152 -89 -128 -41 12 -64 51 -55 95 12 68 96 87 144 33z m-8 -384 c46 -46
32 -112 -28 -137 -81 -34 -151 73 -86 133 32 30 86 32 114 4z m8 -406 c12 -14
22 -34 22 -45 0 -28 -26 -75 -45 -83 -83 -32 -158 52 -109 122 33 48 92 50
132 6z m0 -390 c70 -79 -51 -185 -123 -108 -27 29 -31 59 -14 98 24 51 96 57
137 10z"/>
<path d="M1731 1133 c-11 -10 -34 -36 -50 -57 l-28 -39 26 -22 c14 -12 50 -40
80 -63 l54 -41 39 54 c21 29 38 62 38 73 0 13 -22 37 -61 66 -34 25 -65 46
-69 46 -4 0 -17 -8 -29 -17z"/>
<path d="M1621 996 c-9 -11 3 -25 56 -67 88 -70 89 -71 102 -55 8 10 -6 26
-68 74 -64 50 -81 59 -90 48z"/>
<path d="M1510 861 c-44 -55 -80 -103 -80 -107 0 -4 -6 -12 -13 -18 -8 -6 -72
-85 -143 -176 -71 -91 -131 -167 -134 -170 -3 -3 -30 -36 -59 -74 l-54 -69 25
-21 c41 -34 61 -50 98 -78 l35 -27 58 72 c32 40 66 83 77 97 10 14 48 61 83
105 35 44 96 123 137 175 40 52 76 97 80 100 3 3 27 33 53 67 26 34 54 69 62
77 13 13 5 22 -65 80 l-79 66 -81 -99z"/>
<path d="M1658 671 c-1 -5 -17 -26 -35 -47 -17 -22 -60 -76 -95 -120 -34 -45
-111 -143 -170 -218 -60 -75 -108 -140 -108 -144 0 -4 86 -6 192 -5 178 2 192
3 212 22 19 20 20 32 21 267 1 214 -4 279 -17 245z"/>
<path d="M1004 164 c-7 -48 1 -61 56 -93 14 -9 90 16 90 30 0 6 -126 109 -134
109 -3 0 -8 -21 -12 -46z"/>
<path d="M985 65 c-3 -8 -7 -22 -10 -30 -5 -18 5 -19 38 -4 24 11 24 12 6 30
-23 23 -28 24 -34 4z"/>
</g>
</svg>
